# xmcd
#
# Track frame offsets: 
#        150
#        11890
#        29233
#        42282
#        53672
#        71081
#        82126
#        94651
#        110775
#        123543
#        133574
#        145123
#        161710
#        175519
#        191137
#        203446
#        217180
#        230973
#        244849
#        258433
#        269614
#        283732
#        293106
#        308073
#        321864
#        332813
#
# Disc length: 4565 seconds
#
# Revision: 0
# Processed by: cddbd v1.5.2PL0 Copyright (c) Steve Scherf et al.
# Submitted via: ExactAudioCopy v1.0b3
#
DISCID=a011d31a
DTITLE=John Lee Hooker - Burnin' and Plays And Sings The Blues
DYEAR=1962
DGENRE=Blues
TTITLE0=Boom Boom
TTITLE1=Process
TTITLE2=Lost A Good Girl
TTITLE3=A New Leaf
TTITLE4=Blues Before Sunrise
TTITLE5=Let's Make It
TTITLE6=I Got A Letter
TTITLE7=Thelma
TTITLE8=Drug Store Woman
TTITLE9=Keep Your Hands To Yourself
TTITLE10=What Do You Say
TTITLE11=The Journey
TTITLE12=I Don't Want Your Money
TTITLE13=Hey, Baby
TTITLE14=Mad Man Blues
TTITLE15=Bluebird
TTITLE16=Worried Life Blues
TTITLE17=Apologize
TTITLE18=Lonely Boy Boogie
TTITLE19=Please Don't Go
TTITLE20=Dreamin' Blues
TTITLE21=Hey Boogie
TTITLE22=Just Me And My Telephone
TTITLE23=The Road Is So Rough [Bonus Track]
TTITLE24=Send Me Your Pillow [Bonus Track]
TTITLE25=Onions [Bonus Track]
EXTD=
EXTT0=
EXTT1=
EXTT2=
EXTT3=
EXTT4=
EXTT5=
EXTT6=
EXTT7=
EXTT8=
EXTT9=
EXTT10=
EXTT11=
EXTT12=
EXTT13=
EXTT14=
EXTT15=
EXTT16=
EXTT17=
EXTT18=
EXTT19=
EXTT20=
EXTT21=
EXTT22=
EXTT23=
EXTT24=
EXTT25=
PLAYORDER=
